<?xml version="1.0" encoding="UTF-8"?>
<svg width="912px" height="1244px" viewBox="0 0 228 311" version="1.1" xmlns="http://www.w3.org/2000/svg" xmlns:xlink="http://www.w3.org/1999/xlink">
    <!-- Generator: Sketch 48.2 (47327) - http://www.bohemiancoding.com/sketch -->
    <title>Untitled 3</title>
    <desc>Created with Sketch.</desc>
    <defs>
        <rect id="path-1" x="0" y="0" width="512" height="512"></rect>
        <path d="M143.390864,196.240425 L231.341035,196.240425 C239.831795,196.240425 242.860437,197.112479 246.062308,198.887662 C248.967179,200.387548 251.363482,202.790564 252.856742,205.694842 C254.629404,208.914412 255.499022,211.951537 255.499022,220.443733 L255.499022,274.522999 C255.499022,283.015195 254.629404,286.05232 252.856742,289.27189 C251.363482,292.176168 248.967179,294.579183 246.062308,296.07907 C242.860437,297.854253 239.831795,298.726307 231.341035,298.726307 L143.390864,298.726307 C134.900103,298.726307 131.871462,297.854253 128.66959,296.07907 C125.764719,294.579183 123.368416,292.176168 121.875157,289.27189 C120.102495,286.05232 119.232877,283.015195 119.232877,274.522999 L119.232877,220.443733 C119.232877,211.951537 120.102495,208.914412 121.875157,205.694842 C123.368416,202.790564 125.764719,200.387548 128.66959,198.887662 C131.871462,197.112479 134.900103,196.240425 143.390864,196.240425 Z M143.390864,324.347777 L231.341035,324.347777 C239.831795,324.347777 242.860437,325.219831 246.062308,326.995014 C248.967179,328.494901 251.363482,330.897917 252.856742,333.802195 C254.629404,337.021764 255.499022,340.05889 255.499022,348.551085 L255.499022,402.630352 C255.499022,411.122547 254.629404,414.159672 252.856742,417.379242 C251.363482,420.28352 248.967179,422.686536 246.062308,424.186423 C242.860437,425.961606 239.831795,426.833659 231.341035,426.833659 L143.390864,426.833659 C134.900103,426.833659 131.871462,425.961606 128.66959,424.186423 C125.764719,422.686536 123.368416,420.28352 121.875157,417.379242 C120.102495,414.159672 119.232877,411.122547 119.232877,402.630352 L119.232877,348.551085 C119.232877,340.05889 120.102495,337.021764 121.875157,333.802195 C123.368416,330.897917 125.764719,328.494901 128.66959,326.995014 C131.871462,325.219831 134.900103,324.347777 143.390864,324.347777 Z M143.390864,68.1330724 L231.341035,68.1330724 C239.831795,68.1330724 242.860437,69.0051262 246.062308,70.7803092 C248.967179,72.2801959 251.363482,74.6832117 252.856742,77.5874896 C254.629404,80.8070594 255.499022,83.8441846 255.499022,92.3363803 L255.499022,146.415646 C255.499022,154.907842 254.629404,157.944967 252.856742,161.164537 C251.363482,164.068815 248.967179,166.471831 246.062308,167.971718 C242.860437,169.746901 239.831795,170.618954 231.341035,170.618954 L143.390864,170.618954 C134.900103,170.618954 131.871462,169.746901 128.66959,167.971718 C125.764719,166.471831 123.368416,164.068815 121.875157,161.164537 C120.102495,157.944967 119.232877,154.907842 119.232877,146.415646 L119.232877,92.3363803 C119.232877,83.8441846 120.102495,80.8070594 121.875157,77.5874896 C123.368416,74.6832117 125.764719,72.2801959 128.66959,70.7803092 C131.871462,69.0051262 134.900103,68.1330724 143.390864,68.1330724 Z" id="path-3"></path>
        <radialGradient cx="36.7092216%" cy="13.3388458%" fx="36.7092216%" fy="13.3388458%" r="69.7041491%" gradientTransform="translate(0.367092,0.133388),rotate(90.000000),scale(1.000000,0.982675),translate(-0.367092,-0.133388)" id="radialGradient-5">
            <stop stop-color="#FF520E" offset="0%"></stop>
            <stop stop-color="#FFB634" offset="100%"></stop>
        </radialGradient>
    </defs>
    <g id="Page-1" stroke="none" stroke-width="1" fill="none" fill-rule="evenodd">
        <g id="Icon" transform="translate(174.578819, 216.578819) rotate(18.000000) translate(-174.578819, -216.578819) translate(-81.421181, -39.421181)">
            <g id="Group">
                <mask id="mask-2" fill="white">
                    <use xlink:href="#path-1"></use>
                </mask>
                <g id="Mask"></g>
                <mask id="mask-4" fill="white">
                    <use xlink:href="#path-3"></use>
                </mask>
                <use id="Combined-Shape-Copy" fill="#FFFFFF" xlink:href="#path-3"></use>
                <polygon id="Mask-Copy-5" fill="url(#radialGradient-5)" mask="url(#mask-4)" points="0 0 512 0 512 512 0 512"></polygon>
                <path d="M143.390864,196.240425 L231.341035,196.240425 C239.831795,196.240425 242.860437,197.112479 246.062308,198.887662 C248.967179,200.387548 251.363482,202.790564 252.856742,205.694842 C254.629404,208.914412 255.499022,211.951537 255.499022,220.443733 L255.499022,274.522999 C255.499022,283.015195 254.629404,286.05232 252.856742,289.27189 C251.363482,292.176168 248.967179,294.579183 246.062308,296.07907 C242.860437,297.854253 239.831795,298.726307 231.341035,298.726307 L143.390864,298.726307 C134.900103,298.726307 131.871462,297.854253 128.66959,296.07907 C125.764719,294.579183 123.368416,292.176168 121.875157,289.27189 C120.102495,286.05232 119.232877,283.015195 119.232877,274.522999 L119.232877,220.443733 C119.232877,211.951537 120.102495,208.914412 121.875157,205.694842 C123.368416,202.790564 125.764719,200.387548 128.66959,198.887662 C131.871462,197.112479 134.900103,196.240425 143.390864,196.240425 Z M143.390864,324.347777 L231.341035,324.347777 C239.831795,324.347777 242.860437,325.219831 246.062308,326.995014 C248.967179,328.494901 251.363482,330.897917 252.856742,333.802195 C254.629404,337.021764 255.499022,340.05889 255.499022,348.551085 L255.499022,402.630352 C255.499022,411.122547 254.629404,414.159672 252.856742,417.379242 C251.363482,420.28352 248.967179,422.686536 246.062308,424.186423 C242.860437,425.961606 239.831795,426.833659 231.341035,426.833659 L143.390864,426.833659 C134.900103,426.833659 131.871462,425.961606 128.66959,424.186423 C125.764719,422.686536 123.368416,420.28352 121.875157,417.379242 C120.102495,414.159672 119.232877,411.122547 119.232877,402.630352 L119.232877,348.551085 C119.232877,340.05889 120.102495,337.021764 121.875157,333.802195 C123.368416,330.897917 125.764719,328.494901 128.66959,326.995014 C131.871462,325.219831 134.900103,324.347777 143.390864,324.347777 Z M143.390864,68.1330724 L231.341035,68.1330724 C239.831795,68.1330724 242.860437,69.0051262 246.062308,70.7803092 C248.967179,72.2801959 251.363482,74.6832117 252.856742,77.5874896 C254.629404,80.8070594 255.499022,83.8441846 255.499022,92.3363803 L255.499022,146.415646 C255.499022,154.907842 254.629404,157.944967 252.856742,161.164537 C251.363482,164.068815 248.967179,166.471831 246.062308,167.971718 C242.860437,169.746901 239.831795,170.618954 231.341035,170.618954 L143.390864,170.618954 C134.900103,170.618954 131.871462,169.746901 128.66959,167.971718 C125.764719,166.471831 123.368416,164.068815 121.875157,161.164537 C120.102495,157.944967 119.232877,154.907842 119.232877,146.415646 L119.232877,92.3363803 C119.232877,83.8441846 120.102495,80.8070594 121.875157,77.5874896 C123.368416,74.6832117 125.764719,72.2801959 128.66959,70.7803092 C131.871462,69.0051262 134.900103,68.1330724 143.390864,68.1330724 Z" id="Combined-Shape-Copy-2"></path>
            </g>
        </g>
    </g>
</svg>