<?xml version="1.0" encoding="UTF-8"?>
<svg width="227.1px" height="310.4px" viewBox="0 0 2271 3104" version="1.1" xmlns="http://www.w3.org/2000/svg" xmlns:xlink="http://www.w3.org/1999/xlink">
    <!-- Generator: Sketch 48.2 (47327) - http://www.bohemiancoding.com/sketch -->
    <title>Untitled 3</title>
    <desc>Created with Sketch.</desc>
    <defs>
        <path d="M243.908636,1282.40425 L1123.41035,1282.40425 C1208.31795,1282.40425 1238.60437,1291.12479 1270.62308,1308.87662 C1299.67179,1323.87548 1323.63482,1347.90564 1338.56742,1376.94842 C1356.29404,1409.14412 1364.99022,1439.51537 1364.99022,1524.43733 L1364.99022,2065.22999 C1364.99022,2150.15195 1356.29404,2180.5232 1338.56742,2212.7189 C1323.63482,2241.76168 1299.67179,2265.79183 1270.62308,2280.7907 C1238.60437,2298.54253 1208.31795,2307.26307 1123.41035,2307.26307 L243.908636,2307.26307 C159.001032,2307.26307 128.714615,2298.54253 96.6959034,2280.7907 C67.6471948,2265.79183 43.6841603,2241.76168 28.7515653,2212.7189 C11.0249465,2180.5232 2.32876712,2150.15195 2.32876712,2065.22999 L2.32876712,1524.43733 C2.32876712,1439.51537 11.0249465,1409.14412 28.7515653,1376.94842 C43.6841603,1347.90564 67.6471948,1323.87548 96.6959034,1308.87662 C128.714615,1291.12479 159.001032,1282.40425 243.908636,1282.40425 Z M243.908636,2563.47777 L1123.41035,2563.47777 C1208.31795,2563.47777 1238.60437,2572.19831 1270.62308,2589.95014 C1299.67179,2604.94901 1323.63482,2628.97917 1338.56742,2658.02195 C1356.29404,2690.21764 1364.99022,2720.5889 1364.99022,2805.51085 L1364.99022,3346.30352 C1364.99022,3431.22547 1356.29404,3461.59672 1338.56742,3493.79242 C1323.63482,3522.8352 1299.67179,3546.86536 1270.62308,3561.86423 C1238.60437,3579.61606 1208.31795,3588.33659 1123.41035,3588.33659 L243.908636,3588.33659 C159.001032,3588.33659 128.714615,3579.61606 96.6959034,3561.86423 C67.6471948,3546.86536 43.6841603,3522.8352 28.7515653,3493.79242 C11.0249465,3461.59672 2.32876712,3431.22547 2.32876712,3346.30352 L2.32876712,2805.51085 C2.32876712,2720.5889 11.0249465,2690.21764 28.7515653,2658.02195 C43.6841603,2628.97917 67.6471948,2604.94901 96.6959034,2589.95014 C128.714615,2572.19831 159.001032,2563.47777 243.908636,2563.47777 Z M243.908636,1.33072407 L1123.41035,1.33072407 C1208.31795,1.33072407 1238.60437,10.0512625 1270.62308,27.8030921 C1299.67179,42.8019587 1323.63482,66.8321166 1338.56742,95.8748957 C1356.29404,128.070594 1364.99022,158.441846 1364.99022,243.363803 L1364.99022,784.156465 C1364.99022,869.078422 1356.29404,899.449674 1338.56742,931.645373 C1323.63482,960.688152 1299.67179,984.71831 1270.62308,999.717176 C1238.60437,1017.46901 1208.31795,1026.18954 1123.41035,1026.18954 L243.908636,1026.18954 C159.001032,1026.18954 128.714615,1017.46901 96.6959034,999.717176 C67.6471948,984.71831 43.6841603,960.688152 28.7515653,931.645373 C11.0249465,899.449674 2.32876712,869.078422 2.32876712,784.156465 L2.32876712,243.363803 C2.32876712,158.441846 11.0249465,128.070594 28.7515653,95.8748957 C43.6841603,66.8321166 67.6471948,42.8019587 96.6959034,27.8030921 C128.714615,10.0512625 159.001032,1.33072407 243.908636,1.33072407 Z" id="path-1"></path>
        <radialGradient cx="36.7092216%" cy="13.3388458%" fx="36.7092216%" fy="13.3388458%" r="69.7041491%" gradientTransform="translate(0.367092,0.133388),rotate(90.000000),scale(1.000000,0.982675),translate(-0.367092,-0.133388)" id="radialGradient-3">
            <stop stop-color="#FF520E" offset="0%"></stop>
            <stop stop-color="#FFB634" offset="100%"></stop>
        </radialGradient>
    </defs>
    <g id="Page-1" stroke="none" stroke-width="1" fill="none" fill-rule="evenodd">
        <g id="Icon" transform="translate(1120.000000, 1867.000000) rotate(18.000000) translate(-1120.000000, -1867.000000) translate(435.000000, 72.000000)">
            <g id="Group" transform="translate(0.000000, -0.000000)">
                <mask id="mask-2" fill="white">
                    <use xlink:href="#path-1"></use>
                </mask>
                <use id="Combined-Shape-Copy" fill="#FFFFFF" xlink:href="#path-1"></use>
                <polygon id="Mask-Copy-5" fill="url(#radialGradient-3)" mask="url(#mask-2)" points="-1190 -680 3930 -680 3930 4440 -1190 4440"></polygon>
            </g>
        </g>
    </g>
</svg>